<svg xmlns="http://www.w3.org/2000/svg" viewBox="0 0 64 64"><g data-name="16-Double arrow"><path style="fill:#ed9204" d="M25 47v4H15L1 37v-5l15 15h9zM63 32v5L49 51H39v-4h9l15-15z"/><path style="fill:#fa5f07" d="m49 37-4 4H19l-4-4h34z"/><path style="fill:#fd9c04" d="M25 17v5l-7 7h-5l12-12zM51 29h-5l-7-7v-5l12 12z"/><path style="fill:#fab503" d="M63 32 48 47h-9l6-6 4-4H15l4 4 6 6h-9L1 32l15-15h9L13 29h38L39 17h9l15 15z"/><rect x="16" y="29" width="32" height="4" rx="2" style="fill:#ffdb02"/><path d="m15 37 4 4h2l-.293-.293A1 1 0 0 1 21.414 39h21.172a1 1 0 0 1 .707 1.707L43 41h2l4-4zM15 51l1-4h9v4H15zM39 51v-4h9l1 4H39z" style="fill:#d65106"/><path style="fill:none;stroke:#000;stroke-linejoin:round;stroke-width:2px" d="M48 17h-9l12 12H13l12-12h-9L1 32l15 15h9L15 37h34L39 47h9l15-15-15-15zM27 41h18M23 41h2"/><path style="fill:none;stroke:#000;stroke-linejoin:round;stroke-width:2px" d="M25 17v5l-5 5M39 17v5l5 5M1 32v5l14 14h10v-4M63 32v5L49 51H39v-4"/></g></svg>