<svg xmlns="http://www.w3.org/2000/svg" viewBox="0 0 1920 1080"><g transform="
          rotate(293 960 540) 
          translate(-986.0968332418677 -554.6794686985506)
          scale(2.027184201293612)
        "><rect width="1920" height="1080" fill="rgb(173, 25, 23)"></rect><g transform="translate(0, 0)"><path fill="rgb(160, 23, 21)" fill-opacity="1" d="M0,88.236L15.238,87.519C30.476,86.802,60.952,85.368,91.429,85.145C121.905,84.923,152.381,85.912,182.857,86.024C213.333,86.135,243.81,85.368,274.286,75.796C304.762,66.223,335.238,47.846,365.714,46.294C396.19,44.742,426.667,60.015,457.143,55.334C487.619,50.653,518.095,26.017,548.571,24.62C579.048,23.223,609.524,45.064,640,50.505C670.476,55.945,700.952,44.984,731.429,34.839C761.905,24.694,792.381,15.364,822.857,20.18C853.333,24.996,883.81,43.957,914.286,47.376C944.762,50.795,975.238,38.672,1005.714,32.604C1036.19,26.535,1066.667,26.523,1097.143,35.319C1127.619,44.115,1158.095,61.719,1188.571,71.174C1219.048,80.629,1249.524,81.935,1280,71.169C1310.476,60.403,1340.952,37.566,1371.429,28.156C1401.905,18.746,1432.381,22.763,1462.857,31.568C1493.333,40.373,1523.81,53.966,1554.286,63.582C1584.762,73.199,1615.238,78.838,1645.714,75.129C1676.19,71.42,1706.667,58.363,1737.143,45.078C1767.619,31.793,1798.095,18.281,1828.571,10.841C1859.048,3.402,1889.524,2.035,1904.762,1.352L1920,0.669L1920,1080L1904.762,1080C1889.524,1080,1859.048,1080,1828.571,1080C1798.095,1080,1767.619,1080,1737.143,1080C1706.667,1080,1676.19,1080,1645.714,1080C1615.238,1080,1584.762,1080,1554.286,1080C1523.81,1080,1493.333,1080,1462.857,1080C1432.381,1080,1401.905,1080,1371.429,1080C1340.952,1080,1310.476,1080,1280,1080C1249.524,1080,1219.048,1080,1188.571,1080C1158.095,1080,1127.619,1080,1097.143,1080C1066.667,1080,1036.19,1080,1005.714,1080C975.238,1080,944.762,1080,914.286,1080C883.81,1080,853.333,1080,822.857,1080C792.381,1080,761.905,1080,731.429,1080C700.952,1080,670.476,1080,640,1080C609.524,1080,579.048,1080,548.571,1080C518.095,1080,487.619,1080,457.143,1080C426.667,1080,396.19,1080,365.714,1080C335.238,1080,304.762,1080,274.286,1080C243.81,1080,213.333,1080,182.857,1080C152.381,1080,121.905,1080,91.429,1080C60.952,1080,30.476,1080,15.238,1080L0,1080Z"></path></g><g transform="translate(0, 90)"><path fill="rgb(146, 21, 19)" fill-opacity="1" d="M0,54.175L15.238,50.863C30.476,47.552,60.952,40.928,91.429,34.044C121.905,27.16,152.381,20.016,182.857,18.064C213.333,16.112,243.81,19.353,274.286,21.652C304.762,23.951,335.238,25.308,365.714,33.264C396.19,41.22,426.667,55.775,457.143,65.688C487.619,75.6,518.095,80.869,548.571,84.03C579.048,87.19,609.524,88.242,640,82.156C670.476,76.07,700.952,62.845,731.429,52.324C761.905,41.802,792.381,33.983,822.857,27.159C853.333,20.335,883.81,14.506,914.286,23.118C944.762,31.731,975.238,54.786,1005.714,68.042C1036.19,81.297,1066.667,84.753,1097.143,86.604C1127.619,88.454,1158.095,88.699,1188.571,83.57C1219.048,78.441,1249.524,67.938,1280,61.379C1310.476,54.82,1340.952,52.206,1371.429,46.865C1401.905,41.523,1432.381,33.454,1462.857,39.827C1493.333,46.201,1523.81,67.016,1554.286,75.697C1584.762,84.377,1615.238,80.923,1645.714,79.941C1676.19,78.959,1706.667,80.449,1737.143,78.72C1767.619,76.991,1798.095,72.042,1828.571,59.697C1859.048,47.352,1889.524,27.61,1904.762,17.74L1920,7.869L1920,990L1904.762,990C1889.524,990,1859.048,990,1828.571,990C1798.095,990,1767.619,990,1737.143,990C1706.667,990,1676.19,990,1645.714,990C1615.238,990,1584.762,990,1554.286,990C1523.81,990,1493.333,990,1462.857,990C1432.381,990,1401.905,990,1371.429,990C1340.952,990,1310.476,990,1280,990C1249.524,990,1219.048,990,1188.571,990C1158.095,990,1127.619,990,1097.143,990C1066.667,990,1036.19,990,1005.714,990C975.238,990,944.762,990,914.286,990C883.81,990,853.333,990,822.857,990C792.381,990,761.905,990,731.429,990C700.952,990,670.476,990,640,990C609.524,990,579.048,990,548.571,990C518.095,990,487.619,990,457.143,990C426.667,990,396.19,990,365.714,990C335.238,990,304.762,990,274.286,990C243.81,990,213.333,990,182.857,990C152.381,990,121.905,990,91.429,990C60.952,990,30.476,990,15.238,990L0,990Z"></path></g><g transform="translate(0, 180)"><path fill="rgb(133, 19, 18)" fill-opacity="1" d="M0,81.278L15.238,74.603C30.476,67.927,60.952,54.577,91.429,43.224C121.905,31.872,152.381,22.517,182.857,22.324C213.333,22.132,243.81,31.1,274.286,43.598C304.762,56.096,335.238,72.124,365.714,73.085C396.19,74.046,426.667,59.941,457.143,51.63C487.619,43.318,518.095,40.8,548.571,34.108C579.048,27.415,609.524,16.548,640,10.986C670.476,5.424,700.952,5.167,731.429,10.059C761.905,14.952,792.381,24.995,822.857,38.606C853.333,52.217,883.81,69.396,914.286,75.221C944.762,81.046,975.238,75.517,1005.714,63.138C1036.19,50.758,1066.667,31.527,1097.143,33.894C1127.619,36.26,1158.095,60.222,1188.571,63.966C1219.048,67.709,1249.524,51.232,1280,47.371C1310.476,43.509,1340.952,52.263,1371.429,52.802C1401.905,53.341,1432.381,45.666,1462.857,46.568C1493.333,47.469,1523.81,56.947,1554.286,61.557C1584.762,66.168,1615.238,65.911,1645.714,61.489C1676.19,57.067,1706.667,48.48,1737.143,46.002C1767.619,43.524,1798.095,47.156,1828.571,48.93C1859.048,50.705,1889.524,50.624,1904.762,50.584L1920,50.543L1920,900L1904.762,900C1889.524,900,1859.048,900,1828.571,900C1798.095,900,1767.619,900,1737.143,900C1706.667,900,1676.19,900,1645.714,900C1615.238,900,1584.762,900,1554.286,900C1523.81,900,1493.333,900,1462.857,900C1432.381,900,1401.905,900,1371.429,900C1340.952,900,1310.476,900,1280,900C1249.524,900,1219.048,900,1188.571,900C1158.095,900,1127.619,900,1097.143,900C1066.667,900,1036.19,900,1005.714,900C975.238,900,944.762,900,914.286,900C883.81,900,853.333,900,822.857,900C792.381,900,761.905,900,731.429,900C700.952,900,670.476,900,640,900C609.524,900,579.048,900,548.571,900C518.095,900,487.619,900,457.143,900C426.667,900,396.19,900,365.714,900C335.238,900,304.762,900,274.286,900C243.81,900,213.333,900,182.857,900C152.381,900,121.905,900,91.429,900C60.952,900,30.476,900,15.238,900L0,900Z"></path></g><g transform="translate(0, 270)"><path fill="rgb(120, 17, 16)" fill-opacity="1" d="M0,45.488L15.238,44.852C30.476,44.216,60.952,42.943,91.429,36.89C121.905,30.836,152.381,20.001,182.857,13.531C213.333,7.061,243.81,4.956,274.286,7.962C304.762,10.968,335.238,19.086,365.714,24.189C396.19,29.292,426.667,31.38,457.143,31.854C487.619,32.327,518.095,31.185,548.571,33.853C579.048,36.521,609.524,42.998,640,47.666C670.476,52.334,700.952,55.191,731.429,59.665C761.905,64.139,792.381,70.229,822.857,69.189C853.333,68.149,883.81,59.979,914.286,51.531C944.762,43.083,975.238,34.357,1005.714,34.575C1036.19,34.792,1066.667,43.954,1097.143,42.498C1127.619,41.043,1158.095,28.972,1188.571,32.248C1219.048,35.524,1249.524,54.148,1280,57.804C1310.476,61.459,1340.952,50.147,1371.429,52.667C1401.905,55.187,1432.381,71.54,1462.857,78.433C1493.333,85.325,1523.81,82.756,1554.286,75.545C1584.762,68.334,1615.238,56.481,1645.714,55.754C1676.19,55.026,1706.667,65.425,1737.143,64.571C1767.619,63.717,1798.095,51.609,1828.571,46.631C1859.048,41.652,1889.524,43.803,1904.762,44.878L1920,45.953L1920,810L1904.762,810C1889.524,810,1859.048,810,1828.571,810C1798.095,810,1767.619,810,1737.143,810C1706.667,810,1676.19,810,1645.714,810C1615.238,810,1584.762,810,1554.286,810C1523.81,810,1493.333,810,1462.857,810C1432.381,810,1401.905,810,1371.429,810C1340.952,810,1310.476,810,1280,810C1249.524,810,1219.048,810,1188.571,810C1158.095,810,1127.619,810,1097.143,810C1066.667,810,1036.19,810,1005.714,810C975.238,810,944.762,810,914.286,810C883.81,810,853.333,810,822.857,810C792.381,810,761.905,810,731.429,810C700.952,810,670.476,810,640,810C609.524,810,579.048,810,548.571,810C518.095,810,487.619,810,457.143,810C426.667,810,396.19,810,365.714,810C335.238,810,304.762,810,274.286,810C243.81,810,213.333,810,182.857,810C152.381,810,121.905,810,91.429,810C60.952,810,30.476,810,15.238,810L0,810Z"></path></g><g transform="translate(0, 360)"><path fill="rgb(106, 15, 14)" fill-opacity="1" d="M0,11.246L15.238,18.912C30.476,26.579,60.952,41.913,91.429,40.059C121.905,38.204,152.381,19.162,182.857,16.242C213.333,13.322,243.81,26.523,274.286,38.731C304.762,50.938,335.238,62.152,365.714,55.703C396.19,49.254,426.667,25.142,457.143,23.803C487.619,22.464,518.095,43.899,548.571,47.286C579.048,50.674,609.524,36.014,640,32.196C670.476,28.377,700.952,35.399,731.429,37.486C761.905,39.572,792.381,36.722,822.857,42.123C853.333,47.523,883.81,61.173,914.286,56.722C944.762,52.272,975.238,29.72,1005.714,28.33C1036.19,26.939,1066.667,46.71,1097.143,53.171C1127.619,59.632,1158.095,52.784,1188.571,55.251C1219.048,57.719,1249.524,69.502,1280,69.665C1310.476,69.829,1340.952,58.372,1371.429,45.485C1401.905,32.598,1432.381,18.28,1462.857,17.163C1493.333,16.045,1523.81,28.128,1554.286,40.598C1584.762,53.068,1615.238,65.926,1645.714,62.288C1676.19,58.65,1706.667,38.516,1737.143,28.791C1767.619,19.066,1798.095,19.75,1828.571,27.902C1859.048,36.053,1889.524,51.672,1904.762,59.482L1920,67.291L1920,720L1904.762,720C1889.524,720,1859.048,720,1828.571,720C1798.095,720,1767.619,720,1737.143,720C1706.667,720,1676.19,720,1645.714,720C1615.238,720,1584.762,720,1554.286,720C1523.81,720,1493.333,720,1462.857,720C1432.381,720,1401.905,720,1371.429,720C1340.952,720,1310.476,720,1280,720C1249.524,720,1219.048,720,1188.571,720C1158.095,720,1127.619,720,1097.143,720C1066.667,720,1036.19,720,1005.714,720C975.238,720,944.762,720,914.286,720C883.81,720,853.333,720,822.857,720C792.381,720,761.905,720,731.429,720C700.952,720,670.476,720,640,720C609.524,720,579.048,720,548.571,720C518.095,720,487.619,720,457.143,720C426.667,720,396.19,720,365.714,720C335.238,720,304.762,720,274.286,720C243.81,720,213.333,720,182.857,720C152.381,720,121.905,720,91.429,720C60.952,720,30.476,720,15.238,720L0,720Z"></path></g><g transform="translate(0, 450)"><path fill="rgb(93, 13, 12)" fill-opacity="1" d="M0,82.389L15.238,76.024C30.476,69.659,60.952,56.929,91.429,55.984C121.905,55.038,152.381,65.877,182.857,65.567C213.333,65.256,243.81,53.797,274.286,52.944C304.762,52.09,335.238,61.844,365.714,64.18C396.19,66.517,426.667,61.436,457.143,54.436C487.619,47.435,518.095,38.515,548.571,33.371C579.048,28.226,609.524,26.857,640,22.636C670.476,18.415,700.952,11.341,731.429,19.936C761.905,28.532,792.381,52.796,822.857,66.334C853.333,79.872,883.81,82.685,914.286,72.291C944.762,61.897,975.238,38.295,1005.714,26.3C1036.19,14.305,1066.667,13.916,1097.143,12.911C1127.619,11.906,1158.095,10.285,1188.571,12.608C1219.048,14.93,1249.524,21.195,1280,24.982C1310.476,28.769,1340.952,30.076,1371.429,28.867C1401.905,27.657,1432.381,23.93,1462.857,21.774C1493.333,19.618,1523.81,19.032,1554.286,22.826C1584.762,26.621,1615.238,34.796,1645.714,41.591C1676.19,48.387,1706.667,53.804,1737.143,61.504C1767.619,69.204,1798.095,79.188,1828.571,71.721C1859.048,64.254,1889.524,39.338,1904.762,26.879L1920,14.421L1920,630L1904.762,630C1889.524,630,1859.048,630,1828.571,630C1798.095,630,1767.619,630,1737.143,630C1706.667,630,1676.19,630,1645.714,630C1615.238,630,1584.762,630,1554.286,630C1523.81,630,1493.333,630,1462.857,630C1432.381,630,1401.905,630,1371.429,630C1340.952,630,1310.476,630,1280,630C1249.524,630,1219.048,630,1188.571,630C1158.095,630,1127.619,630,1097.143,630C1066.667,630,1036.19,630,1005.714,630C975.238,630,944.762,630,914.286,630C883.81,630,853.333,630,822.857,630C792.381,630,761.905,630,731.429,630C700.952,630,670.476,630,640,630C609.524,630,579.048,630,548.571,630C518.095,630,487.619,630,457.143,630C426.667,630,396.19,630,365.714,630C335.238,630,304.762,630,274.286,630C243.81,630,213.333,630,182.857,630C152.381,630,121.905,630,91.429,630C60.952,630,30.476,630,15.238,630L0,630Z"></path></g><g transform="translate(0, 540)"><path fill="rgb(80, 12, 11)" fill-opacity="1" d="M0,14.938L15.238,15.297C30.476,15.655,60.952,16.372,91.429,26.031C121.905,35.69,152.381,54.291,182.857,59.86C213.333,65.429,243.81,57.966,274.286,54.465C304.762,50.965,335.238,51.427,365.714,47.725C396.19,44.022,426.667,36.155,457.143,41.854C487.619,47.553,518.095,66.817,548.571,62.137C579.048,57.458,609.524,28.834,640,20.042C670.476,11.25,700.952,22.29,731.429,23.242C761.905,24.193,792.381,15.057,822.857,19.418C853.333,23.78,883.81,41.639,914.286,47.613C944.762,53.587,975.238,47.675,1005.714,39.081C1036.19,30.488,1066.667,19.212,1097.143,20.007C1127.619,20.803,1158.095,33.669,1188.571,38.902C1219.048,44.135,1249.524,41.735,1280,46.086C1310.476,50.437,1340.952,61.539,1371.429,60.046C1401.905,58.553,1432.381,44.465,1462.857,38.647C1493.333,32.83,1523.81,35.283,1554.286,42.661C1584.762,50.039,1615.238,62.342,1645.714,58.207C1676.19,54.072,1706.667,33.5,1737.143,26.278C1767.619,19.056,1798.095,25.184,1828.571,33.327C1859.048,41.469,1889.524,51.626,1904.762,56.705L1920,61.784L1920,540L1904.762,540C1889.524,540,1859.048,540,1828.571,540C1798.095,540,1767.619,540,1737.143,540C1706.667,540,1676.19,540,1645.714,540C1615.238,540,1584.762,540,1554.286,540C1523.81,540,1493.333,540,1462.857,540C1432.381,540,1401.905,540,1371.429,540C1340.952,540,1310.476,540,1280,540C1249.524,540,1219.048,540,1188.571,540C1158.095,540,1127.619,540,1097.143,540C1066.667,540,1036.19,540,1005.714,540C975.238,540,944.762,540,914.286,540C883.81,540,853.333,540,822.857,540C792.381,540,761.905,540,731.429,540C700.952,540,670.476,540,640,540C609.524,540,579.048,540,548.571,540C518.095,540,487.619,540,457.143,540C426.667,540,396.19,540,365.714,540C335.238,540,304.762,540,274.286,540C243.81,540,213.333,540,182.857,540C152.381,540,121.905,540,91.429,540C60.952,540,30.476,540,15.238,540L0,540Z"></path></g><g transform="translate(0, 630)"><path fill="rgb(67, 10, 9)" fill-opacity="1" d="M0,80.208L15.238,79.816C30.476,79.424,60.952,78.64,91.429,65.546C121.905,52.452,152.381,27.048,182.857,18.914C213.333,10.781,243.81,19.919,274.286,25.689C304.762,31.459,335.238,33.861,365.714,35.396C396.19,36.931,426.667,37.598,457.143,45.132C487.619,52.665,518.095,67.065,548.571,66.748C579.048,66.432,609.524,51.398,640,48.481C670.476,45.564,700.952,54.765,731.429,55.607C761.905,56.449,792.381,48.933,822.857,41.049C853.333,33.166,883.81,24.915,914.286,29.89C944.762,34.866,975.238,53.069,1005.714,61.819C1036.19,70.569,1066.667,69.866,1097.143,62.814C1127.619,55.762,1158.095,42.361,1188.571,38.305C1219.048,34.249,1249.524,39.538,1280,38.167C1310.476,36.796,1340.952,28.767,1371.429,34.644C1401.905,40.52,1432.381,60.304,1462.857,69.656C1493.333,79.009,1523.81,77.93,1554.286,71.547C1584.762,65.165,1615.238,53.479,1645.714,53.651C1676.19,53.822,1706.667,65.852,1737.143,68.38C1767.619,70.908,1798.095,63.934,1828.571,55.902C1859.048,47.869,1889.524,38.777,1904.762,34.232L1920,29.686L1920,450L1904.762,450C1889.524,450,1859.048,450,1828.571,450C1798.095,450,1767.619,450,1737.143,450C1706.667,450,1676.19,450,1645.714,450C1615.238,450,1584.762,450,1554.286,450C1523.81,450,1493.333,450,1462.857,450C1432.381,450,1401.905,450,1371.429,450C1340.952,450,1310.476,450,1280,450C1249.524,450,1219.048,450,1188.571,450C1158.095,450,1127.619,450,1097.143,450C1066.667,450,1036.19,450,1005.714,450C975.238,450,944.762,450,914.286,450C883.81,450,853.333,450,822.857,450C792.381,450,761.905,450,731.429,450C700.952,450,670.476,450,640,450C609.524,450,579.048,450,548.571,450C518.095,450,487.619,450,457.143,450C426.667,450,396.19,450,365.714,450C335.238,450,304.762,450,274.286,450C243.81,450,213.333,450,182.857,450C152.381,450,121.905,450,91.429,450C60.952,450,30.476,450,15.238,450L0,450Z"></path></g><g transform="translate(0, 720)"><path fill="rgb(53, 8, 7)" fill-opacity="1" d="M0,86.032L15.238,77.958C30.476,69.884,60.952,53.736,91.429,48.071C121.905,42.406,152.381,47.225,182.857,45.503C213.333,43.782,243.81,35.52,274.286,41.454C304.762,47.387,335.238,67.516,365.714,74.627C396.19,81.739,426.667,75.833,457.143,66.5C487.619,57.166,518.095,44.406,548.571,39.234C579.048,34.063,609.524,36.481,640,38.517C670.476,40.554,700.952,42.209,731.429,44.81C761.905,47.411,792.381,50.959,822.857,51.178C853.333,51.396,883.81,48.284,914.286,45.302C944.762,42.319,975.238,39.465,1005.714,43.402C1036.19,47.338,1066.667,58.065,1097.143,60.875C1127.619,63.684,1158.095,58.576,1188.571,49.653C1219.048,40.731,1249.524,27.994,1280,24.251C1310.476,20.507,1340.952,25.756,1371.429,29.111C1401.905,32.465,1432.381,33.926,1462.857,36.376C1493.333,38.826,1523.81,42.264,1554.286,41.061C1584.762,39.859,1615.238,34.015,1645.714,31.233C1676.19,28.451,1706.667,28.73,1737.143,29.662C1767.619,30.594,1798.095,32.179,1828.571,32.204C1859.048,32.229,1889.524,30.694,1904.762,29.926L1920,29.158L1920,360L1904.762,360C1889.524,360,1859.048,360,1828.571,360C1798.095,360,1767.619,360,1737.143,360C1706.667,360,1676.19,360,1645.714,360C1615.238,360,1584.762,360,1554.286,360C1523.81,360,1493.333,360,1462.857,360C1432.381,360,1401.905,360,1371.429,360C1340.952,360,1310.476,360,1280,360C1249.524,360,1219.048,360,1188.571,360C1158.095,360,1127.619,360,1097.143,360C1066.667,360,1036.19,360,1005.714,360C975.238,360,944.762,360,914.286,360C883.81,360,853.333,360,822.857,360C792.381,360,761.905,360,731.429,360C700.952,360,670.476,360,640,360C609.524,360,579.048,360,548.571,360C518.095,360,487.619,360,457.143,360C426.667,360,396.19,360,365.714,360C335.238,360,304.762,360,274.286,360C243.81,360,213.333,360,182.857,360C152.381,360,121.905,360,91.429,360C60.952,360,30.476,360,15.238,360L0,360Z"></path></g><g transform="translate(0, 810)"><path fill="rgb(40, 6, 5)" fill-opacity="1" d="M0,57.909L15.238,50.985C30.476,44.062,60.952,30.214,91.429,25.257C121.905,20.299,152.381,24.232,182.857,30.746C213.333,37.26,243.81,46.356,274.286,45.885C304.762,45.414,335.238,35.376,365.714,30.688C396.19,26,426.667,26.662,457.143,35.244C487.619,43.826,518.095,60.329,548.571,60.95C579.048,61.57,609.524,46.308,640,34.566C670.476,22.823,700.952,14.6,731.429,16.257C761.905,17.914,792.381,29.452,822.857,39.06C853.333,48.669,883.81,56.349,914.286,64.206C944.762,72.063,975.238,80.097,1005.714,71.211C1036.19,62.326,1066.667,36.521,1097.143,36.151C1127.619,35.782,1158.095,60.847,1188.571,66.867C1219.048,72.886,1249.524,59.861,1280,47.894C1310.476,35.927,1340.952,25.019,1371.429,18.291C1401.905,11.563,1432.381,9.015,1462.857,12.036C1493.333,15.056,1523.81,23.644,1554.286,36.597C1584.762,49.55,1615.238,66.867,1645.714,61.496C1676.19,56.125,1706.667,28.066,1737.143,16.719C1767.619,5.373,1798.095,10.74,1828.571,22.952C1859.048,35.164,1889.524,54.222,1904.762,63.751L1920,73.28L1920,270L1904.762,270C1889.524,270,1859.048,270,1828.571,270C1798.095,270,1767.619,270,1737.143,270C1706.667,270,1676.19,270,1645.714,270C1615.238,270,1584.762,270,1554.286,270C1523.81,270,1493.333,270,1462.857,270C1432.381,270,1401.905,270,1371.429,270C1340.952,270,1310.476,270,1280,270C1249.524,270,1219.048,270,1188.571,270C1158.095,270,1127.619,270,1097.143,270C1066.667,270,1036.19,270,1005.714,270C975.238,270,944.762,270,914.286,270C883.81,270,853.333,270,822.857,270C792.381,270,761.905,270,731.429,270C700.952,270,670.476,270,640,270C609.524,270,579.048,270,548.571,270C518.095,270,487.619,270,457.143,270C426.667,270,396.19,270,365.714,270C335.238,270,304.762,270,274.286,270C243.81,270,213.333,270,182.857,270C152.381,270,121.905,270,91.429,270C60.952,270,30.476,270,15.238,270L0,270Z"></path></g><g transform="translate(0, 900)"><path fill="rgb(27, 4, 4)" fill-opacity="1" d="M0,80.608L15.238,74.224C30.476,67.84,60.952,55.073,91.429,46.902C121.905,38.73,152.381,35.155,182.857,28.282C213.333,21.409,243.81,11.238,274.286,14.129C304.762,17.019,335.238,32.971,365.714,33.008C396.19,33.045,426.667,17.167,457.143,23.734C487.619,30.301,518.095,59.313,548.571,59.758C579.048,60.203,609.524,32.08,640,23.87C670.476,15.66,700.952,27.363,731.429,32.753C761.905,38.144,792.381,37.223,822.857,35.945C853.333,34.666,883.81,33.031,914.286,31.676C944.762,30.321,975.238,29.246,1005.714,36.035C1036.19,42.824,1066.667,57.478,1097.143,54.132C1127.619,50.787,1158.095,29.444,1188.571,26.542C1219.048,23.64,1249.524,39.18,1280,49.212C1310.476,59.243,1340.952,63.767,1371.429,58.465C1401.905,53.162,1432.381,38.034,1462.857,29.977C1493.333,21.919,1523.81,20.933,1554.286,21.282C1584.762,21.631,1615.238,23.316,1645.714,22.261C1676.19,21.206,1706.667,17.41,1737.143,17.7C1767.619,17.99,1798.095,22.366,1828.571,33.349C1859.048,44.332,1889.524,61.923,1904.762,70.718L1920,79.514L1920,180L1904.762,180C1889.524,180,1859.048,180,1828.571,180C1798.095,180,1767.619,180,1737.143,180C1706.667,180,1676.19,180,1645.714,180C1615.238,180,1584.762,180,1554.286,180C1523.81,180,1493.333,180,1462.857,180C1432.381,180,1401.905,180,1371.429,180C1340.952,180,1310.476,180,1280,180C1249.524,180,1219.048,180,1188.571,180C1158.095,180,1127.619,180,1097.143,180C1066.667,180,1036.19,180,1005.714,180C975.238,180,944.762,180,914.286,180C883.81,180,853.333,180,822.857,180C792.381,180,761.905,180,731.429,180C700.952,180,670.476,180,640,180C609.524,180,579.048,180,548.571,180C518.095,180,487.619,180,457.143,180C426.667,180,396.19,180,365.714,180C335.238,180,304.762,180,274.286,180C243.81,180,213.333,180,182.857,180C152.381,180,121.905,180,91.429,180C60.952,180,30.476,180,15.238,180L0,180Z"></path></g><g transform="translate(0, 990)"><path fill="rgb(13, 2, 2)" fill-opacity="1" d="M0,70.521L15.238,62.9C30.476,55.278,60.952,40.036,91.429,37.413C121.905,34.79,152.381,44.785,182.857,46.893C213.333,49,243.81,43.219,274.286,43.109C304.762,43,335.238,48.563,365.714,53.878C396.19,59.193,426.667,64.262,457.143,69.419C487.619,74.576,518.095,79.822,548.571,76.566C579.048,73.311,609.524,61.555,640,47.938C670.476,34.321,700.952,18.843,731.429,20.949C761.905,23.055,792.381,42.745,822.857,56.711C853.333,70.677,883.81,78.919,914.286,72.797C944.762,66.675,975.238,46.188,1005.714,42.559C1036.19,38.931,1066.667,52.159,1097.143,56.706C1127.619,61.254,1158.095,57.119,1188.571,58.648C1219.048,60.177,1249.524,67.368,1280,68.728C1310.476,70.088,1340.952,65.616,1371.429,67.698C1401.905,69.78,1432.381,78.417,1462.857,78.673C1493.333,78.93,1523.81,70.806,1554.286,58.459C1584.762,46.112,1615.238,29.541,1645.714,31.443C1676.19,33.344,1706.667,53.718,1737.143,61.773C1767.619,69.828,1798.095,65.564,1828.571,67.519C1859.048,69.474,1889.524,77.649,1904.762,81.736L1920,85.823L1920,90L1904.762,90C1889.524,90,1859.048,90,1828.571,90C1798.095,90,1767.619,90,1737.143,90C1706.667,90,1676.19,90,1645.714,90C1615.238,90,1584.762,90,1554.286,90C1523.81,90,1493.333,90,1462.857,90C1432.381,90,1401.905,90,1371.429,90C1340.952,90,1310.476,90,1280,90C1249.524,90,1219.048,90,1188.571,90C1158.095,90,1127.619,90,1097.143,90C1066.667,90,1036.19,90,1005.714,90C975.238,90,944.762,90,914.286,90C883.81,90,853.333,90,822.857,90C792.381,90,761.905,90,731.429,90C700.952,90,670.476,90,640,90C609.524,90,579.048,90,548.571,90C518.095,90,487.619,90,457.143,90C426.667,90,396.19,90,365.714,90C335.238,90,304.762,90,274.286,90C243.81,90,213.333,90,182.857,90C152.381,90,121.905,90,91.429,90C60.952,90,30.476,90,15.238,90L0,90Z"></path></g></g></svg>