<?xml version="1.0" encoding="utf-8"?>
<!-- Generator: Adobe Illustrator 26.5.0, SVG Export Plug-In . SVG Version: 6.00 Build 0)  -->
<svg version="1.1" id="Warstwa_1" xmlns="http://www.w3.org/2000/svg" xmlns:xlink="http://www.w3.org/1999/xlink" x="0px" y="0px"
	 viewBox="0 0 2000 2000" style="enable-background:new 0 0 2000 2000;" xml:space="preserve">
<style type="text/css">
	.st0{fill:none;}
	.st1{font-family:'Outfit-ExtraBold';}
	.st2{font-size:130px;}
	.st3{font-family:'Outfit-ExtraLight';}
	.st4{font-size:60px;}
	.st5{letter-spacing:48;}
	.st6{fill:#010202;}
	.st7{fill:#AD1917;}
</style>
<rect x="823.22" y="764.16" class="st0" width="560.38" height="131.34"/>
<text transform="matrix(1 0 0 1 823.2191 858.9279)" class="st1 st2">WITDUN</text>
<rect x="824.91" y="895.5" class="st0" width="554.09" height="58.36"/>
<text transform="matrix(1 0 0 1 824.907 937.6148)" class="st3 st4 st5">EXPRESS</text>
<rect x="805.41" y="876.3" class="st6" width="573.59" height="3"/>
<g>
	<path class="st7" d="M732.8,898.27h-0.5h-55.54h-0.5l-34.77-69.72l-34.77,69.72h-0.5h-55.54h-0.5l-34.83-69.84
		c-4.35,8.01-8.7,16.03-13.03,24.05c-4.98,9.23-9.95,18.46-14.9,27.7c11.76,24.56,23.52,49.12,35.27,73.67h0.5h55.54h0.5l27.6-55.34
		l27.6,55.34h14.34h0.5h41.21h14.34h0.5C714.48,935.33,723.64,916.8,732.8,898.27z"/>
	<path class="st7" d="M796.1,773.34l-28.03-56.2h-0.5h-13.79h-41.75h-0.5h-13.79l-27.87,55.89l-27.87-55.89h-0.5h-13.84h-41.7h-0.5
		H571.6L543.74,773l34.7,69.57c0,0,0,0,0.01,0l34.77-69.73c0.16,0,0.33,0,0.49,0.01l0-0.01l0,0.01c9.26,0.14,18.51,0.25,27.77,0.34
		c9.42-0.09,18.85-0.21,28.27-0.35l34.77,69.72c0,0,0,0,0.01,0l34.77-69.73c0.16,0,0.33,0,0.49,0.01l0-0.01l0,0.01
		c18.42,0.28,36.84,0.44,55.26,0.57L796.1,773.34z"/>
</g>
</svg>
