<?xml version="1.0" encoding="UTF-8" standalone="no"?>
<!DOCTYPE svg PUBLIC "-//W3C//DTD SVG 1.1//EN" "http://www.w3.org/Graphics/SVG/1.1/DTD/svg11.dtd">
<!-- Created with Vectornator (http://vectornator.io/) -->
<svg height="100%" stroke-miterlimit="10" style="fill-rule:nonzero;clip-rule:evenodd;stroke-linecap:round;stroke-linejoin:round;" version="1.1" viewBox="0 0 1000 948" width="100%" xml:space="preserve" xmlns="http://www.w3.org/2000/svg" xmlns:vectornator="http://vectornator.io" xmlns:xlink="http://www.w3.org/1999/xlink">
<defs/>
<clipPath id="ArtboardFrame">
<rect height="948" width="1000" x="0" y="0"/>
</clipPath>
<g clip-path="url(#ArtboardFrame)" id="Untitled" vectornator:layerName="Untitled">
<path d="M866.3 77.7L866.6 79L864.1 87.3L858.4 93.3L851.8 97.8L829.6 100.9L820.2 114.2L830.3 127.7L830.8 132.8L831.9 137.5L836.9 142.5L847.5 157.3L847.1 165.2L843.1 173L839.6 182.8L833.9 188.9L806.1 206.2L796.5 217.1L779.3 229L771.8 230.1L768.7 231.4L765.8 233.8L759.5 236L745.3 235.1L738 238.3L726 239.3L723.5 240.6L720.7 246.2L716.6 249.1L712.1 249.8L703.2 249L695.7 258L686.7 260.9L677.2 260.9L669.9 265.1L663.6 266.4L656.4 266.3L652.8 269.2L649.5 273.2L635.6 281.3L631.9 282.3L628.1 281.9L625 284.4L623.4 290L620.8 293L617.8 294.5L610.3 295.9L578.8 291L577.9 290L577.3 288.5L575.7 287.4L574 287.1L570.1 288.3L567.5 293.4L564.6 295.8L561.2 296.7L559.7 281.5L554.6 268.5L549 264.6L537.6 261.6L527 255.1L519.4 252.6L517.5 252.5L515.1 251.5L513.6 249.3L510.6 243.5L508.1 236.4L499.5 219.5L514.2 192L517.7 188.2L521.9 185.5L529.9 186.1L535.5 183.6L535.7 180.9L536.9 179L538.5 174.2L540.3 172.3L541.5 170.1L541.5 167.3L541.9 164.5L536.9 163.2L527.1 164L523.5 162.2L525.5 155.6L522.9 152L517.8 151.4L513 148.5L509.6 143L507.8 135.7L507.5 132.4L509.1 130L513.5 125.6L515 122.8L516.2 119.7L515.1 115.4L513.1 111.8L510.9 105.3L511.6 99.5L514 96.7L522.8 97.8L525.2 97.5L524.8 99.1L523.9 100.4L523.5 101.2L523.1 103.3L523.1 105.8L524.5 104.2L526.2 99.8L526.6 99.3L527.4 98.3L529.9 94.2L532.5 91.7L534.5 90.7L535.1 90.5L542.8 85.6L544.5 84.9L548.4 84.4L554.8 79.6L556.2 79.1L557.6 78.9L558.2 78.3L558.6 77.5L559.4 75.3L560.4 74.3L561.2 73.7L561.1 72.8L560.7 70.7L562.2 70.6L621.4 73.7L678.9 76.8L714.5 78.7L757.7 81L813.1 84L855.1 86.2L861.9 83.9L863.8 82.4C863.8 82.4 866.3 77.7 866.3 77.7Z" fill="#ebecf0" fill-rule="nonzero" opacity="1" stroke="#171213" stroke-linecap="round" stroke-linejoin="round" stroke-width="2" vectornator:layerName="path"/>
<path d="M524.8 99.1L525.2 97.5L522.8 97.8L514 96.7L511.6 99.5L510.9 105.3L513.1 111.8L515.1 115.4L516.2 119.7L515 122.8L513.5 125.6L509.1 130L507.5 132.4L507.8 135.7L509.6 143L513 148.5L517.8 151.4L522.9 152L525.5 155.6L523.5 162.2L527.1 164L536.9 163.2L541.9 164.5L541.5 167.3L541.5 170.1L540.3 172.3L538.5 174.2L536.9 179L535.7 180.9L535.5 183.6L529.9 186.1L521.9 185.5L517.7 188.2L514.2 192L499.5 219.5L494.1 221.9L482.7 222.6L477.3 220.4L474.2 218.4L467.7 211.6L466 210.6L464.7 209L462.7 207.8L454.6 206.7L448.9 208.8L445.2 211.2L436.7 206.1L418.8 203.1L415.5 200L412.6 196.3L409.1 195.9L392.2 198.5L379.5 196L376.8 198.1L372.8 205.6L365.9 208.1L362.7 211.1L362.2 213.3L361.8 215.7L361.7 219.3L355.5 221.8L341.7 218.1L338 218.5L335.3 222.4L332.8 227.7L329.8 238.2L327 239.9L322.6 234.6L317.3 231.7L297 230.9L291.2 227.3L287.1 220L282.3 214.1L280.5 195.8L284.7 191.6L287.7 186.3L286.5 182.7L284.8 179.9L282.8 178.9L282.7 175.6L287.7 173.2L293.2 174L291.3 169.9L289 166.6L286.2 164.1L282.5 156.5L280.1 153.6L275.8 150.5L275.8 141.2L275 131.8L268.7 112.5L282.6 109.1L284.2 106.6L283.8 102.4L281.9 99.7L280.8 97.3L281.5 94.2L284.2 91.5L285.2 86.9L284.5 78.7L281.4 72.4L273.2 60.5L266.1 46.1L273.5 43.2L277.7 42.4L281.5 41.1L291 30.6L321.1 16.4L358.8 9.3L375.7 3.5L402.3 1L418.7 1L420.9 1.8L424.5 5L425.9 5.7L427.9 6.2L462 26.6L468.2 34.7L469.2 36.6L470.2 39.3L470.3 41.6L468.5 42.4L467 39.4L465.2 38.1L464 34.8L462.3 32.7L457.6 24.7L456.7 24.2L453.2 23.5L452.3 23.1L451.3 21.5L448.5 20.5L442.6 16.4L436.7 13.6L435.8 12.3L432.5 9.8L431.7 9.4L430.5 9.9L429.8 10.8L428.4 15.7L428.2 16.9L428.2 19.4L428.8 20L431.2 21.1L432.9 23.9L434.3 27L433.9 29.5L433.9 30.6L435.1 31.9L434.5 35.2L435.6 36.7L437.5 36.3L439.2 34.1L438.6 37L439.4 39.3L440.6 41.2L443.2 49L443.9 50.7L443.5 54.6L443.6 61.4L444.3 67.8L445.7 70.7L447.2 71.2L450.3 73.5L451.8 74.1L453.2 74.2L454.8 74.7L456.3 75.7L456.9 77.2L458.5 79.5L475.3 85L479 85.2L482.2 83.5L483 84.4L484.2 85L486.9 85.9L524.3 80.3L532.5 76.3L536.4 75.3L539.6 73.9L545.7 67.5L547.4 66.7L548.5 67.6L530.8 81.3L526.5 83.5L522.3 84.7L513.6 85.5L509.5 87.1L509.5 88.1L511.8 91.2L512.9 91.8L511.8 92.8L511.5 95.2L514 96.7L522.8 97.8L525.2 97.5L525.2 98.8C525.2 98.8 524.8 99.1 524.8 99.1Z" fill="#ebecf0" fill-rule="nonzero" opacity="1" stroke="#171213" stroke-linecap="round" stroke-linejoin="round" stroke-width="2" vectornator:layerName="path"/>
<path d="M224.8 516.3L233.5 514.7L237.6 515.7L248.8 521.9L250.6 525.9L250.9 531.1L255.2 538.8L264.9 544.2L270.3 550.2L281.8 554.3L302.4 550.7L306.1 542.1L310.3 541.2L322 541.3L333 544.3L342.9 550.7L341.9 555.3L340.6 559.3L338.1 560.9L336.8 564.3L337.4 571.2L339.7 577.1L345.6 578.5L351.7 577.2L355.5 578.3L359 581.2L356.2 587.9L357.4 604.2L358.7 612.1L355.4 614.2L351.9 615L348.5 614.8L345.2 615.9L342.6 618.7L336.8 632L335.8 635.9L335.2 640L333.6 644.8L330.4 646.9L325.7 653.1L322.1 661.4L313.8 673.7L306.6 687.4L304.3 696.2L300.8 702.4L294.7 703.4L289.5 707.4L282.3 725.3L281.9 727.2L279.1 725.5L276.8 725.2L274.1 726.9L274.1 729L277.3 733.8L278.4 736.6L279.2 739.9L280.2 743L282 744.9L284.5 746.3L286.3 748.3L287.3 751.1L287.5 754.9L288.8 756.6L289 758.7L288.3 760L287.1 759.6L285.6 757L285 756.6L283.5 756.6L283.3 757L283.3 758.9L282.1 759.5L280.3 758.9L279.4 758.9L278.2 759.7L276.6 762L275.6 762.9L273.3 763.5L271.3 763.3L269.3 763.6L267.1 765.5L265.3 768.3L264.2 770.4L263 772.1L260.8 773.7L257.7 777.9L253.7 778.2L249.5 776L246.1 772.9L244.3 770.6L243.4 768.6L242.2 763.3L241.2 760.4L238.2 757.2L236.9 754.9L235.4 752.9L232.9 748.3L231.5 746.3L229.3 744.7L224.8 743.1L223.1 740.7L222.8 739.4L222.8 736.5L222.1 735.1L221.2 734.8L216.6 734.8L214 735.9L212.7 734.9L212.3 734L211 730L207.8 729.4L206.8 726.6L207.6 724.1L209.6 724.6L208.9 722.3L211 721.5L212.5 720.2L214.3 719.1L215.8 717.9L216.5 715.8L218.1 715.3L221.3 716.2L223 715.8L223.9 714.5L226 712.5L226.6 711.4L226.8 708.5L227.5 707.1L227.2 705.4L230.3 704.1L229.4 701.1L220.9 692.1L217.8 690.4L214.6 689.5L211 689.5L209.7 689.7L208.2 693.3L207 694.9L205.4 695.2L203.8 694.5L200.7 692.1L196.5 691.7L190.3 697.7L186.1 698.5L185.8 697.5L186.1 696.5L187.5 695.3L187.7 693.4L187.2 691.3L186.3 689.1L185 686.7L183.7 685.4L182 685.1L176.1 687.4L173.4 687.4L172.7 687.2L167.7 678.6L167.2 676.6L164.7 676.4L156.4 678.4L155.4 678L154.7 677.3L153.3 675.3L152.2 674.5L132.3 667.5L128.1 667.9L127.2 669L126.2 670.7L125.1 671.9L123.7 671.4L123.1 670.1L123.5 667L123.4 665.5L122.2 662.6L120.7 661.3L118.9 660.5L116.9 658.9L115.9 657.2L114.7 654.6L113.8 651.8L113.5 649.5L114.2 646.6L115 645L115.1 643.4L113.5 640.9L110.9 639.5L105.2 639.4L104.3 637.1L103.8 634.7L102.7 634.1L101.4 635L100.5 637.1L100.1 638.7L99 639L97.6 638.3L96.4 637.1L95.6 635.5L90.6 634.4L88.7 632.7L87.9 634.7L86.5 635.8L85.3 636.2L84.4 637.1L84.8 638.9L86.4 640.2L87.9 642.4L88 647L86.8 648.9L86.4 650.3L86.6 651.4L86.7 656.9L86.5 658.2L75.1 657.4L71.5 658.4L69.4 658.3L69.4 655.4L70.8 653.1L74.3 649.1L79.4 637.1L83.8 625.8L84.1 624L84.1 620.9L84.3 619.4L84.8 618.3L86.3 616.5L86.5 614.4L86.6 610.4L87.4 606L88.8 601.7L90.5 598.4L89.7 597.4L90.2 592.8L88.8 589.7L86.5 587L84.7 583.8L83.9 579.7L83.3 572.9L85.2 571.8L101.2 563.4L104 563.4L109.9 568.5L112.8 568.7L117.8 560L121.1 556L128.4 553.5L142.4 561.2L149.5 559.5L160.5 544.9L170.3 525.7L172.5 524.1L176 522.9L179 519.9L180.4 515.7L182.4 513L197.5 515.8L200.1 518.7L200.5 524.3L206 531.4L213.9 529.6L220 524.3C220 524.3 224.8 516.3 224.8 516.3Z" fill="#ebecf0" fill-rule="nonzero" opacity="1" stroke="#171213" stroke-linecap="round" stroke-linejoin="round" stroke-width="2" vectornator:layerName="path"/>
<path d="M282.3 214.1L278.5 212.9L274.7 213L271.2 214.6L268.6 219.2L266.6 224.7L264.1 235.4L261.1 235.9L242.8 235.5L240.5 238.7L240.6 245.3L242.2 251.3L248.4 257.4L255.9 259.3L259.6 261.2L262.7 265.2L263.4 270L260.3 273.8L258 278L255.1 280.7L247.7 283L233.3 291.5L225.3 304.2L215.6 313.3L209.5 315.7L203.3 316.5L197.2 312.9L191.7 311L193.5 303.2L190.9 295L185.9 293.9L180.5 294.7L175.3 298.8L166.3 310.3L161.3 314L140.8 313.9L123.9 319.7L118.2 320L120.2 322.7L122.9 323.2L119.2 330.4L113 337.5L107.8 338.3L91.2 332.8L81.5 338.2L75.1 352.1L67.3 363.1L62.3 365.2L53.8 366.6L51.7 369.9L49.2 378.7L43.4 372.1L37.5 369.8L34.6 365.8L32.7 364.9L31.7 363.9L28.3 357.2L26.7 355.4L16.1 347.5L13.4 346.1L10.2 342.2L8.2 341.3L6 341.2L3.9 340.5L2.1 339.1L1 336.8L3.6 334.5L4.7 332.5L5.1 329.4L4.9 327.3L3.6 321.5L3 319.8L3 318.8L7.9 315.2L13.9 312L19.8 307.3L22.9 304.1L24.2 301.1L24.5 299.7L27.5 290.3L27.3 287.9L26.7 285.5L26.3 282.8L26.6 280.6L27.3 278.6L28.3 277.1L29.3 276.5L30.1 275.5L32.6 270.3L31.3 269.1L31 268.2L29.4 266.9L28.8 265.8L28.5 264.2L28.3 259.8L25.5 246.9L24.5 238.2L22.4 234.7L21.4 231.2L19 227.4L18.2 224L18.2 220.3L18.4 214.1L18.2 212.5L16.2 205.9L14.7 202.6L15.1 200L14.9 195.3L15.9 195.2L17.7 194.4L19 193.2L19.2 191.8L17.4 190.6L18.4 190L18.4 188.8L17.4 188.3L18 187L18.9 187.9L21.6 189.5L22.7 192.8L24.1 193.9L26.9 195.2L28.9 197.3L30 198.2L34.3 199L39.7 200.9L41.5 202.4L43.1 204.6L46.3 210.9L47.5 212.4L48 211.9L48.1 209.2L48.6 207.6L49.4 206.6L50.8 205.5L50.8 203.2L49.7 202.9L47.2 202.7L46 202.1L42.9 194.6L43.6 190.9L46 183.6L47.2 184.6L49.2 183.6L50.8 183.6L50.1 179.3L50.5 175.9L51.1 172.9L51.5 169.7L50.8 169.7L50.5 171.7L49.8 173.1L47.4 175.5L46.4 175.8L45.3 174.3L47.4 172L46 169.2L43.6 167.8L32.6 166.7L31 164.9L32.3 161.6L31.7 160.5L30.7 162.2L29.9 162.4L27.9 161.6L27 162L24.8 165L27.8 165.6L29.4 166.3L30.3 167.4L30.1 169.5L29 171L27.8 171.5L26.9 170.9L24.1 172.6L21.4 173.2L21.4 174.3L22.7 174.9L21.4 175.5L20.4 175.4L18.8 174.5L17.7 174.3L16 173.2L11.2 166.3L8.7 165.2L7.9 162.6L6.1 160.4L7.9 159.6L9.6 155L11.2 155.8L12.3 156.7L15.4 157.8L25.2 158.7L29.2 157.8L33 155.8L40.2 150.5L66.5 138.7L89.3 132.7L117 121L134.9 116.2L154.6 110.9L173.9 102.1L189.9 100.1L201 96.4L199.7 97.6L194.8 99.9L196.9 101.4L205.7 99.9L205 98.8L205 97.5L209.8 97.5L209.1 96.4L209.3 93.6L207 93.5L201.6 95.2L205 93.5L209.1 90.8L215.3 83.5L214.1 86.1L211.8 88.4L211.9 89.4L213.7 89L215.3 88.3L216.6 86.7L220.1 85L221.4 83.5L220.2 81L218.3 81L215.9 83.5L220.1 76.2L231.7 61.3L231.7 62.4L231.1 64L232.1 64.5L233.8 63.9L235 62.4L235.7 60.1L235.1 59.4L233.8 59.9L232.3 61.3L234.3 57.2L237.8 53.7L244.6 49.5L265.4 46.4L266.1 46.1L273.2 60.5L281.4 72.4L284.5 78.7L285.2 86.9L284.2 91.5L281.5 94.2L280.8 97.3L281.9 99.7L283.8 102.4L284.2 106.6L282.6 109.1L268.7 112.5L275 131.8L275.8 141.2L275.8 150.5L280.1 153.6L282.5 156.5L286.2 164.1L289 166.6L291.3 169.9L293.2 174L287.7 173.2L282.7 175.6L282.8 178.9L284.8 179.9L286.5 182.7L287.7 186.3L284.7 191.6L280.5 195.8C280.5 195.8 282.3 214.1 282.3 214.1Z" fill="#ebecf0" fill-rule="nonzero" opacity="1" stroke="#171213" stroke-linecap="round" stroke-linejoin="round" stroke-width="2" vectornator:layerName="path"/>
<path d="M191.7 311L189.7 320.6L190.1 331.1L180.4 343.6L183.4 346.4L185.6 354.6L184.6 357.1L182.7 358.4L173.3 361.4L171.7 361.2L171 362.7L170.9 366.4L170.5 369.9L170.9 379.1L174.4 388.8L175.6 394.5L176.4 400.5L176.4 405.4L173.7 405.4L171.6 406.9L175.8 414.4L177.8 419.2L178 429.3L174.8 438.8L174.3 441.2L174.1 443.7L172.9 448.5L172.9 453.9L173.6 459L176 462.5L178.7 465.3L184.2 468.3L186 473.3L188.3 477.5L191.8 481.1L195.5 481.2L197.2 480.4L198.9 481.5L199 484.7L198.1 487.8L197.7 493.4L199.1 497.7L203.4 500.6L207.9 502.1L215.2 497.2L221.7 504.3L224.8 516.3L220 524.3L213.9 529.6L206 531.4L200.5 524.3L200.1 518.7L197.5 515.8L182.4 513L180.4 515.7L179 519.9L176 522.9L172.5 524.1L170.3 525.7L160.5 544.9L149.5 559.5L142.4 561.2L128.4 553.5L121.1 556L117.8 560L112.8 568.7L109.9 568.5L104 563.4L101.2 563.4L85.2 571.8L83.3 572.9L83 568.7L83.8 566.7L82.8 564.5L80.9 562.5L79.4 561.3L77.1 560.2L72.5 558.8L70.2 557.5L68.1 556L61.6 553.8L59.4 551.5L58.8 548.7L59.6 545.5L61.6 542.5L62.8 539.3L62.6 535L61.6 530.9L60.3 528.2L55.5 524.1L53.2 521.5L52.2 517.4L51.8 513.1L50.4 511.3L48.6 510L47 507.5L46.7 504.1L48 501.3L53.7 495.5L55.6 493L57.1 490.1L57.9 486.9L58.3 477.1L58.8 475.5L61 471.6L61.4 470L61.9 467.1L62.7 465.7L64.5 463.4L58 458.6L57 456.2L57.6 452L58.7 449.1L59.1 446.7L57.6 444.5L57.6 443.5L59.6 440.9L59.6 437.6L58.1 434.7L55.3 433.5L52.5 432.8L49.1 431.1L46.8 428.6L47.4 425.6L45.4 420.9L43 413.7L42.4 407.2L47.6 402.7L50 398.8L51.6 395L51.2 393.3L49.3 391.5L50.1 387.7L52.9 381.9L49.8 379.3L49.2 378.7L51.7 369.9L53.8 366.6L62.3 365.2L67.3 363.1L75.1 352.1L81.5 338.2L91.2 332.8L107.8 338.3L113 337.5L119.2 330.4L122.9 323.2L120.2 322.7L118.2 320L123.9 319.7L140.8 313.9L161.3 314L166.3 310.3L175.3 298.8L180.5 294.7L185.9 293.9L190.9 295L193.5 303.2C193.5 303.2 191.7 311 191.7 311Z" fill="#ebecf0" fill-rule="nonzero" opacity="1" stroke="#171213" stroke-linecap="round" stroke-linejoin="round" stroke-width="2" vectornator:layerName="path"/>
<path d="M282.3 214.1L287.1 220L291.2 227.3L297 230.9L317.3 231.7L322.6 234.6L327 239.9L324.3 246.1L317.1 255.6L318.3 260.6L326.7 267.2L331.5 278L322.4 285.7L323.3 292.8L326.4 298.7L325 309L320.5 319.4L328.6 322.3L336.1 328L341 338.8L338.9 350.4L337.7 352.7L336.1 353.3L334.3 353.2L332.6 354.4L332 358.7L335.6 362.1L337.1 366L339.1 369.2L343.1 370L347.1 368.6L348.9 367L352 369.7L352.9 371.9L353.3 374.6L354.1 375.6L355.2 376.2L361.6 378.4L368.5 378.8L376 382.9L386.2 392.2L389.7 394.1L393.4 394.3L396.8 395.7L399.7 399.3L402.9 402.4L413 405L416.4 403.5L422.2 396.7L424.1 397.2L425.5 398.2L426.3 401.2L427.5 403.8L429.4 406.6L431.8 407.4L433.3 406.5L434.3 404.7L436.1 403.9L438 403.7L441.5 405.3L444.5 408.9L461 422.4L463.7 428.6L467.3 428.3L477.7 423.9L481.2 423.4L490.7 430.6L490.9 435.9L492.8 440L494.3 440.4L494.5 442L488.4 447.9L478.4 452.2L477.4 456.7L476.5 466.9L471.4 472.8L464.8 474.4L461.3 474L458.2 474.3L456.8 479.3L456.1 484.8L457.2 490.5L459.1 495.7L458.7 500.8L453.9 509.2L452.8 510.5L438.3 508.9L432.6 511.6L430.1 515.1L425.4 526.2L422.9 536L422.4 546.6L423.4 555.4L423.5 563.9L420.7 571.5L416 574.9L410.6 572.2L405.6 573.8L403.9 578.8L401.4 582.7L394.2 584.4L392.6 587.9L392.8 593.1L394.7 597.5L400.4 602.6L401.4 606.9L402 614.4L390.7 621.2L378.9 625.5L372.5 625.2L367.3 620.9L366.7 617.1L365.4 613.6L362.1 611.9L358.7 612.1L357.4 604.2L356.2 587.9L359 581.2L355.5 578.3L351.7 577.2L345.6 578.5L339.7 577.1L337.4 571.2L336.8 564.3L338.1 560.9L340.6 559.3L341.9 555.3L342.9 550.7L333 544.3L322 541.3L310.3 541.2L306.1 542.1L302.4 550.7L281.8 554.3L270.3 550.2L264.9 544.2L255.2 538.8L250.9 531.1L250.6 525.9L248.8 521.9L237.6 515.7L233.5 514.7L224.8 516.3L221.7 504.3L215.2 497.2L207.9 502.1L203.4 500.6L199.1 497.7L197.7 493.4L198.1 487.8L199 484.7L198.9 481.5L197.2 480.4L195.5 481.2L191.8 481.1L188.3 477.5L186 473.3L184.2 468.3L178.7 465.3L176 462.5L173.6 459L172.9 453.9L172.9 448.5L174.1 443.7L174.3 441.2L174.8 438.8L178 429.3L177.8 419.2L175.8 414.4L171.6 406.9L173.7 405.4L176.4 405.4L176.4 400.5L175.6 394.5L174.4 388.8L170.9 379.1L170.5 369.9L170.9 366.4L171 362.7L171.7 361.2L173.3 361.4L182.7 358.4L184.6 357.1L185.6 354.6L183.4 346.4L180.4 343.6L190.1 331.1L189.7 320.6L191.7 311L197.2 312.9L203.3 316.5L209.5 315.7L215.6 313.3L225.3 304.2L233.3 291.5L247.7 283L255.1 280.7L258 278L260.3 273.8L263.4 270L262.7 265.2L259.6 261.2L255.9 259.3L248.4 257.4L242.2 251.3L240.6 245.3L240.5 238.7L242.8 235.5L261.1 235.9L264.1 235.4L266.6 224.7L268.6 219.2L271.2 214.6L274.7 213L278.5 212.9C278.5 212.9 282.3 214.1 282.3 214.1Z" fill="#ebecf0" fill-rule="nonzero" opacity="1" stroke="#171213" stroke-linecap="round" stroke-linejoin="round" stroke-width="2" vectornator:layerName="path"/>
<path d="M499.5 219.5L508.1 236.4L510.6 243.5L513.6 249.3L515.1 251.5L517.5 252.5L519.4 252.6L527 255.1L537.6 261.6L549 264.6L554.6 268.5L559.7 281.5L561.2 296.7L556.4 300.6L551.3 303L551.9 306.1L552 309.4L552.8 314.3L552.5 317.5L552 320.8L551 323.6L549.1 323.3L547.3 322L545.4 321.2L543.2 323.3L541.4 326.1L537.2 329.6L532.4 329L533.9 335.7L533.4 341.8L531.4 344L530.6 347.4L531.7 350.8L533.3 353.9L536.2 360.9L536.3 366.3L532 367.5L525.3 387L522.7 392.4L522.1 398.7L524.2 400.8L524.6 403.8L517.2 416L516.8 418.8L516.2 421.6L514.2 421.5L512.3 421.8L511.1 423.7L510.2 425.5L506.4 426.7L494.1 426.9L492.4 427.9L491.7 429.4L490.7 430.6L481.2 423.4L477.7 423.9L467.3 428.3L463.7 428.6L461 422.4L444.5 408.9L441.5 405.3L438 403.7L436.1 403.9L434.3 404.7L433.3 406.5L431.8 407.4L429.4 406.6L427.5 403.8L426.3 401.2L425.5 398.2L424.1 397.2L422.2 396.7L416.4 403.5L413 405L402.9 402.4L399.7 399.3L396.8 395.7L393.4 394.3L389.7 394.1L386.2 392.2L376 382.9L368.5 378.8L361.6 378.4L355.2 376.2L354.1 375.6L353.3 374.6L352.9 371.9L352 369.7L348.9 367L347.1 368.6L343.1 370L339.1 369.2L337.1 366L335.6 362.1L332 358.7L332.6 354.4L334.3 353.2L336.1 353.3L337.7 352.7L338.9 350.4L341 338.8L336.1 328L328.6 322.3L320.5 319.4L325 309L326.4 298.7L323.3 292.8L322.4 285.7L331.5 278L326.7 267.2L318.3 260.6L317.1 255.6L324.3 246.1L327 239.9L329.8 238.2L332.8 227.7L335.3 222.4L338 218.5L341.7 218.1L355.5 221.8L361.7 219.3L361.8 215.7L362.2 213.3L362.7 211.1L365.9 208.1L372.8 205.6L376.8 198.1L379.5 196L392.2 198.5L409.1 195.9L412.6 196.3L415.5 200L418.8 203.1L436.7 206.1L445.2 211.2L448.9 208.8L454.6 206.7L462.7 207.8L464.7 209L466 210.6L467.7 211.6L474.2 218.4L477.3 220.4L482.7 222.6L494.1 221.9C494.1 221.9 499.5 219.5 499.5 219.5Z" fill="#ebecf0" fill-rule="nonzero" opacity="1" stroke="#171213" stroke-linecap="round" stroke-linejoin="round" stroke-width="2" vectornator:layerName="path"/>
<path d="M561.5 666.9L570 668.5L571.2 669.2L571.6 671L571.6 672.9L571.1 674.2L564.3 675.3L560.6 682.4L563.3 685.7L570.8 687.8L574.3 690.5L577 696.7L581.8 702.5L577.8 703.1L570.9 708.9L568.9 713.2L572.4 715L579.2 716L582 717.1L582.6 720.5L582.9 723.3L570.3 731.3L567.1 731.8L561.6 731.3L556.1 732.2L547.3 739L544.7 739.6L542.2 739.6L536.7 736.4L534 740.4L531.2 746L526.9 752.2L520.2 751.3L517.1 753.7L522.4 759L527 765.4L503.4 792L501.2 795.3L499 799.8L497.9 805L499.9 807.6L502.5 807.9L504.7 810.6L504.9 815.8L507.9 821.1L512.9 823.1L515 826.8L516.5 831.6L519.7 834.6L523.4 836.3L530.2 837.5L529.8 841.5L528.1 845L527.3 848.2L528.5 851L530.9 852.6L531.4 854.3L530.3 854.4L529.9 855.1L521.3 864.7L520.5 865.3L518.1 866.1L515 866L513.1 866.5L511.5 867.3L510 868.6L508.7 870.8L507.1 875.8L507.8 877.2L507.1 878.5L505.6 878.6L504.9 881.6L504.6 883.5L503.9 884.7L500.8 886L498.3 886.5L497.3 886.4L494.3 884.5L493.4 884.1L491.3 884.7L487.4 886.9L484.9 887.1L482.9 886.7L482.4 885L482.8 880L482.5 877.7L482.1 875.6L482 873.4L482.8 870.9L479.9 869.1L470.1 868.2L470.5 865.6L470.2 862.4L468.8 855.9L467.2 851.8L466.7 850.3L466 845L465.6 843.8L464.1 842.7L462.6 843L461 843.7L459.6 843.8L458.3 843L456.4 840.7L455.1 839.7L453.6 839.2L450.6 839L449.2 838L448.6 836.9L447.6 832.4L445.3 827.5L443.5 822.8L443.5 818.7L446.2 815.5L443.6 814.1L443.2 812.2L443.4 809.8L442.8 807L441.3 806.1L437.4 808.6L435.1 808.6L427.7 804.5L423.8 803.2L420.2 803.7L420.5 804.2L417.7 806.6L416.2 806.9L414.2 805.3L413.7 804.2L412.6 801L411.4 800.1L409.1 799.6L407.9 799.1L404.7 796.4L403.2 795.5L396.9 794.3L395.6 792.8L396.2 790L390.4 786.1L389 785.8L389.1 783.2L395.1 771.6L407.6 768.9L413.6 764.4L423.2 759.9L424.3 755.3L424.4 747.4L422.7 727.3L423.6 724.1L425.7 723.7L427.9 722.7L428.1 719.8L427 717.1L428.3 713.6L431.3 712.9L445.7 713L444.6 707.3L441.4 703.9L438.2 701.4L435.5 697.8L433.6 691.9L436 685.4L437.8 675.6L440.4 670L448.2 664.9L448.9 659.3L447.6 656.4L447 652.8L447.7 650.4L449 648.9L452.4 636.7L457.4 634.3L471.5 633.8L474.7 632.3L477.9 630.1L481.4 630.8L484.4 633.9L497.5 640.9L503.9 642.3L511.9 642.2L515.3 639.2L522 640.5L528 646L537.3 660.9L540.7 661.9L550.6 661.4C550.6 661.4 561.5 666.9 561.5 666.9Z" fill="#fde047" fill-rule="nonzero" opacity="1" stroke="#000" stroke-linecap="round" stroke-linejoin="round" stroke-width="2" vectornator:layerName="path"/>
<path d="M516.2 421.6L525.8 428.2L536.3 430.4L541.4 432.8L550.6 440.3L571.3 436L574.5 432.7L578.2 432.4L580.9 435.9L583.3 440L586.4 441.7L589.9 442.7L592.7 444.6L593.9 448.8L594.3 454.5L596.3 459L597.7 459.8L599.3 459.4L606.1 462.2L610 464.8L611.4 466.5L610.3 474.6L607 476.6L607.8 480L610.5 483.1L612.9 486.7L612.6 489.7L613.5 492.3L617.1 493.5L627.7 492.3L634.3 495.3L641.5 500.9L647.4 508.8L648 511.4L647.1 513.3L646.1 514.8L645.6 516.8L646.5 521.4L651.9 527L653.4 531.1L653.1 534.9L651.9 537.6L644.6 536.6L638.7 533.3L630.9 533.3L628.3 542.4L631.3 549.5L632.2 554.4L632.6 559.5L633.4 562.1L637 563.9L638.3 565.3L638.3 570.5L636.7 574.9L630.3 580.9L629 585.2L629.3 589.9L626.5 592L622.8 601.1L619.5 602.6L616.2 603.1L613 604.7L606.1 611.3L602.9 612.2L591.9 610.6L588.8 611.8L586.4 615L583.9 624.6L588.4 631.5L591.5 634L592.5 639.3L591.7 644.4L589.4 647.1L576.3 637.5L572.8 638.1L571.5 643.2L571.4 648.3L571.8 653.2L570.1 658L566.7 660.3L563.8 663L561.5 666.9L550.6 661.4L540.7 661.9L537.3 660.9L528 646L522 640.5L515.3 639.2L511.9 642.2L503.9 642.3L497.5 640.9L484.4 633.9L481.4 630.8L477.9 630.1L474.7 632.3L471.5 633.8L457.4 634.3L452.4 636.7L444.9 630.7L442.6 626.1L439.9 622.9L438.7 623.5L437.8 625.2L436.5 626.3L429.5 626.5L407.2 620.8L404.3 618.4L402 614.4L401.4 606.9L400.4 602.6L394.7 597.5L392.8 593.1L392.6 587.9L394.2 584.4L401.4 582.7L403.9 578.8L405.6 573.8L410.6 572.2L416 574.9L420.7 571.5L423.5 563.9L423.4 555.4L422.4 546.6L422.9 536L425.4 526.2L430.1 515.1L432.6 511.6L438.3 508.9L452.8 510.5L453.9 509.2L458.7 500.8L459.1 495.7L457.2 490.5L456.1 484.8L456.8 479.3L458.2 474.3L461.3 474L464.8 474.4L471.4 472.8L476.5 466.9L477.4 456.7L478.4 452.2L488.4 447.9L494.5 442L494.3 440.4L492.8 440L490.9 435.9L490.7 430.6L491.7 429.4L492.4 427.9L494.1 426.9L506.4 426.7L510.2 425.5L511.1 423.7L512.3 421.8L514.2 421.5C514.2 421.5 516.2 421.6 516.2 421.6Z" fill="#ebecf0" fill-rule="nonzero" opacity="1" stroke="#171213" stroke-linecap="round" stroke-linejoin="round" stroke-width="2" vectornator:layerName="path"/>
<path d="M893.8 428.4L890.6 434.4L881.1 448.4L878.3 455.1L875 459.3L871.1 460.8L859.4 454.7L855.4 453.8L853.6 455L851.9 456.8L851.3 458.8L850.8 461.2L845.3 465.8L834.3 464.7L830.5 465.2L821 472.3L817.5 473.4L812.4 472.5L798.8 475.2L784.4 475.1L776.8 477.3L769.7 482.6L770.3 486.7L771.9 491.2L773.9 495.4L774.3 499.7L776.7 505.7L780.2 511L774.7 514.4L770.9 519.8L775.9 527.5L775.3 531.2L772.8 533.6L765.7 536.1L758.5 534.9L754.9 533.5L751.3 534.4L750.3 538.5L750.4 540.2L751.7 542.3L753.1 544.1L755.9 545.4L761 546.4L762.8 546.3L765.2 545.2L766.2 545.3L767.7 546.3L768.1 547.7L768 549.6L768.2 551.8L770 554.6L770.3 556.6L768.8 558.4L768.8 559.5L771.9 559.8L771.8 566.3L769.4 569.7L767 571.6L766.8 575.5L770.8 580.3L770.2 584.8L769 589.7L769.2 593L768.1 593.2L767.2 594L765.9 596.5L764.1 606.4L762.9 610.1L762.8 611.9L763 613.2L763.9 616L764.7 621.1L767.1 627.2L735.3 633.9L718.8 628.7L711.1 628L704.3 623.6L703.7 621.2L703.3 618.5L700.3 615.2L699.4 609.8L696.4 608.8L693.3 611.8L690.4 615.8L687.1 617.7L673.2 619.9L661.2 617.4L658.6 615.5L656.5 612.1L654.2 609.5L637.8 599.4L634.8 591.9L629.3 589.9L629 585.2L630.3 580.9L636.7 574.9L638.3 570.5L638.3 565.3L637 563.9L633.4 562.1L632.6 559.5L632.2 554.4L631.3 549.5L628.3 542.4L630.9 533.3L638.7 533.3L644.6 536.6L651.9 537.6L653.1 534.9L653.4 531.1L651.9 527L646.5 521.4L645.6 516.8L646.1 514.8L647.1 513.3L648 511.4L647.4 508.8L641.5 500.9L634.3 495.3L627.7 492.3L617.1 493.5L613.5 492.3L612.6 489.7L612.9 486.7L610.5 483.1L607.8 480L607 476.6L610.3 474.6L611.4 466.5L610 464.8L606.1 462.2L599.3 459.4L597.7 459.8L596.3 459L594.3 454.5L593.9 448.8L592.7 444.6L589.9 442.7L586.4 441.7L583.3 440L580.9 435.9L578.2 432.4L574.5 432.7L571.3 436L550.6 440.3L541.4 432.8L536.3 430.4L525.8 428.2L516.2 421.6L516.8 418.8L517.2 416L524.6 403.8L524.2 400.8L522.1 398.7L522.7 392.4L525.3 387L532 367.5L536.3 366.3L536.2 360.9L533.3 353.9L531.7 350.8L530.6 347.4L531.4 344L533.4 341.8L533.9 335.7L532.4 329L537.2 329.6L541.4 326.1L543.2 323.3L545.4 321.2L547.3 322L549.1 323.3L551 323.6L552 320.8L552.5 317.5L552.8 314.3L552 309.4L551.9 306.1L551.3 303L556.4 300.6L561.2 296.7L564.6 295.8L567.5 293.4L570.1 288.3L574 287.1L575.7 287.4L577.3 288.5L577.9 290L578.8 291L610.3 295.9L617.8 294.5L620.8 293L623.4 290L625 284.4L628.1 281.9L631.9 282.3L635.6 281.3L649.5 273.2L652.8 269.2L656.4 266.3L663.6 266.4L669.9 265.1L677.2 260.9L686.7 260.9L695.7 258L703.2 249L712.1 249.8L716.6 249.1L720.7 246.2L723.5 240.6L726 239.3L738 238.3L739.3 244.1L741.6 249.5L743.2 256.1L745.7 275.3L751.3 289.3L754.9 296.4L760.2 299.2L765.7 300L770.3 303.6L768.6 306.6L769.1 310.8L771.6 315.3L775.4 317.4L777.8 320L779.3 324.1L780.7 330.1L783.3 335L790.4 338.7L798 337.5L802.9 332.1L807.7 335.8L806.2 344.9L808.7 348.4L811.8 350.6L817.4 347.8L823.2 346.2L824.7 353.9L825.3 362.5L826.5 368.3L826.9 374.4L826.6 378L832.1 383.9L834.2 386.8L836.4 388.7L837.1 389.7L837.3 391.3L836.6 393.9L836.5 395.4L836.8 397.5L837.3 398.8L838.1 399.6L839.5 399.8L839.8 400.6L839.2 406L839.9 407.8L841.6 410.2L843.6 411.7L845.3 411L846.5 412.9L848.9 413.5L854.2 413.2L869.7 416.4L877.4 415.3L880.4 416.3L882.6 418.5L883.6 422.2L885.7 421.1L887.5 422.2L890.3 425.6L889.8 426.4L889 428.9L890.7 429.9L892.3 429.4C892.3 429.4 893.8 428.4 893.8 428.4Z" fill="#ebecf0" fill-rule="nonzero" opacity="1" stroke="#171213" stroke-linecap="round" stroke-linejoin="round" stroke-width="2" vectornator:layerName="path"/>
<path d="M767.1 627.2L767.5 629.4L766.3 631L764.8 631.5L764.8 632.6L766.6 634L766.9 637.1L766.2 643.9L765.5 645.2L765.6 647.1L766.6 647.8L767 649.8L769.5 659.5L770 662.9L770.3 665L770.4 670.8L769.6 677L768.9 679.5L767.7 682.3L766.2 684.7L764.4 685.6L761.8 686L760.1 687.3L757.3 692.1L752.5 697.7L751.8 700.1L751.3 703.2L750.1 705.6L747 709.3L745.2 710.9L738.8 712.5L729.3 716.8L730.6 720L728.7 722L726.2 723.5L723.7 724L721.8 723.2L715.7 728.5L715.3 728.7L713.5 728.9L713.6 730.8L712.4 731.6L711.8 731.6L710.8 730.8L710.3 733L709.1 734.1L708 734.7L707.4 735.5L707.3 736.8L705.7 737.7L704 740.1L702.2 740.8L700.3 738.7L698.9 738.2L697.9 738.4L693.8 740.4L690.8 743.2L689.3 743.6L681.9 743.8L680.9 744.2L679.1 746.2L678.1 746.8L675.4 747L674.1 747.9L672.5 746.9L671.2 747.8L669.8 749.2L668.2 750L664.4 746.3L663.7 747.3L663.1 750L661 752.1L659.8 752.3L659 753.4L658.6 755.9L657.2 757.2L654 758.8L652.8 760.7L652.4 762.4L649.4 765.5L636.3 765.2L629 760.8L627.1 756.8L622.6 750.4L620.9 746.8L619.2 739.6L614.7 730.6L607 725.4L598.6 722.8L595.3 719.3L591.4 717.2L582 717.1L579.2 716L572.4 715L568.9 713.2L570.9 708.9L577.8 703.1L581.8 702.5L577 696.7L574.3 690.5L570.8 687.8L563.3 685.7L560.6 682.4L564.3 675.3L571.1 674.2L571.6 672.9L571.6 671L571.2 669.2L570 668.5L561.5 666.9L563.8 663L566.7 660.3L570.1 658L571.8 653.2L571.4 648.3L571.5 643.2L572.8 638.1L576.3 637.5L589.4 647.1L591.7 644.4L592.5 639.3L591.5 634L588.4 631.5L583.9 624.6L586.4 615L588.8 611.8L591.9 610.6L602.9 612.2L606.1 611.3L613 604.7L616.2 603.1L619.5 602.6L622.8 601.1L626.5 592L629.3 589.9L634.8 591.9L637.8 599.4L654.2 609.5L656.5 612.1L658.6 615.5L661.2 617.4L673.2 619.9L687.1 617.7L690.4 615.8L693.3 611.8L696.4 608.8L699.4 609.8L700.3 615.2L703.3 618.5L703.7 621.2L704.3 623.6L711.1 628L718.8 628.7L735.3 633.9C735.3 633.9 767.1 627.2 767.1 627.2Z" fill="#ebecf0" fill-rule="nonzero" opacity="1" stroke="#171213" stroke-linecap="round" stroke-linejoin="round" stroke-width="2" vectornator:layerName="path"/>
<path d="M902.7 429.6L901.9 430.1L900.1 430.1L897 428.2L895.1 427.8L893.8 428.4L892.3 429.4L890.7 429.9L889 428.9L889.8 426.4L890.3 425.6L887.5 422.2L885.7 421.1L883.6 422.2L882.6 418.5L880.4 416.3L877.4 415.3L869.7 416.4L854.2 413.2L848.9 413.5L846.5 412.9L845.3 411L843.6 411.7L841.6 410.2L839.9 407.8L839.2 406L839.8 400.6L839.5 399.8L838.1 399.6L837.3 398.8L836.8 397.5L836.5 395.4L836.6 393.9L837.3 391.3L837.1 389.7L836.4 388.7L834.2 386.8L832.1 383.9L826.6 378L826.9 374.4L826.5 368.3L825.3 362.5L824.7 353.9L823.2 346.2L817.4 347.8L811.8 350.6L808.7 348.4L806.2 344.9L807.7 335.8L802.9 332.1L798 337.5L790.4 338.7L783.3 335L780.7 330.1L779.3 324.1L777.8 320L775.4 317.4L771.6 315.3L769.1 310.8L768.6 306.6L770.3 303.6L765.7 300L760.2 299.2L754.9 296.4L751.3 289.3L745.7 275.3L743.2 256.1L741.6 249.5L739.3 244.1L738 238.3L745.3 235.1L759.5 236L765.8 233.8L768.7 231.4L771.8 230.1L779.3 229L796.5 217.1L806.1 206.2L833.9 188.9L839.6 182.8L843.1 173L847.1 165.2L847.5 157.3L836.9 142.5L831.9 137.5L830.8 132.8L830.3 127.7L820.2 114.2L829.6 100.9L851.8 97.8L858.4 93.3L864.1 87.3L866.6 79L866.3 77.7L869 76.3L871.1 76.6L877 79.7L878.1 79.8L880.4 79.3L881.4 79.6L882.5 80.7L883.5 83.3L884.1 84.4L885.2 85.2L888.6 85.6L889.3 86.5L888.3 90.1L888.3 91.9L890.1 94.4L892.4 94.4L894.8 93.4L896.8 93L898.6 93.8L904.8 99L908.6 101.4L916.6 104.4L920.4 107.7L921.4 109.2L923.2 112.7L924.1 114L925.2 114.7L927.3 115.3L928.2 115.8L929.9 118.3L931.2 121.7L932.3 125.5L933.1 129.1L934.6 137L934.6 140.9L933.1 143.5L931.9 144.5L930.9 145.9L930.8 147.7L931.2 149.2L932 150.5L933.1 151.4L934 153L933.5 154.9L933.6 159.8L934.7 164L936 167.9L937 172.1L937.9 181.1L939 184.6L941.4 188.1L941.6 198.5L944 210.2L952.4 236.3L957.1 246.1L959.1 251.4L963.1 267.1L964.9 271.9L966.7 274.3L967.7 276.6L968.4 279.1L969.6 281.6L971.4 283.6L973.1 284.9L974.1 286.9L973.9 291L973 293.4L971.8 295.4L970.9 297.6L970.7 300.9L971.6 303.7L974.6 307.6L975.7 310L975.9 311.3L975.7 314.4L976.5 319L976.3 321.3L975.2 323.5L974.9 324.8L975 326.6L975.7 328.4L976 329.7L977 354.6L975.7 361.7L971.7 366.6L958.5 375.6L941.8 380.4L933 385.6L924.2 392.9L912.1 411.6L908.1 416.5L906.3 419.4L901.6 428.9C901.6 428.9 902.7 429.6 902.7 429.6Z" fill="#ebecf0" fill-rule="nonzero" opacity="1" stroke="#171213" stroke-linecap="round" stroke-linejoin="round" stroke-width="2" vectornator:layerName="path"/>
<path d="M902.7 429.6L903.4 430.2L904.5 431.8L904.8 433.9L904 436.8L906.3 438.3L913.4 440.2L915 439.6L916.3 440.9L922.5 443.3L924.6 443.5L924.6 444.5L923.8 446L925.5 445.7L926.8 446.3L927.7 447.2L928.6 447.4L930 445.7L930.4 446.4L932 448L933.7 446.4L934.1 447.6L933.8 449.6L933.4 450.1L936.2 455.7L938.1 456.3L942.8 456.2L944.7 457.3L946.5 460.9L948.6 462.2L949 464L949.1 465.9L950 467.9L951.4 474L952.5 476.8L950.9 478L949.6 480L947.8 484.5L947.1 487.5L947 492.7L946.4 494.6L947.1 495.7L945.9 496.3L945.5 499.8L944.4 501.2L945.9 504.1L947.8 506.6L946.6 510.3L944.7 512.2L942.6 513.5L940.9 515.5L940.1 518.4L939.6 522.1L940.6 524L940.8 525L939.5 525.9L939.8 527L940.9 528.8L939.7 530.4L938.2 530.8L938.2 532L939.3 533.3L939.4 534.8L938.9 539.2L939.3 541.5L940.1 543.7L942.3 547.5L940.9 547.5L942.2 550L943.8 550.6L945.1 551.4L945.7 554.5L946.4 556.8L947.9 557.9L949.7 558.5L951.1 559.5L949.6 562.7L949.7 563.7L953.8 569.7L954.6 571.6L953.5 572.2L952.8 573.3L952.6 574.9L953.2 577.1L951.4 577.8L949.7 579.7L948.3 582L947.8 584.2L948.4 587.5L950 588.4L951.9 588.4L953.6 589.5L959.1 601.6L961.4 604.4L966.4 607.6L971.2 612.4L972.3 614.4L970.6 615.2L970.2 616.7L971.7 619.8L974.3 623.9L975.2 626L976.4 632.6L975.9 634.9L976.7 635.5L979.2 636.9L980.3 638.6L980.6 641.3L981.2 643.4L982.7 645.8L989.4 652.1L997.7 656.7L999 658.7L997.8 661.4L994.7 662L991.4 662.1L989.4 663L986.8 661.5L984 661.8L981.7 663.6L980.5 666.3L980.7 669.3L982.2 671.3L984.5 672.4L987.3 672.8L987.3 673.7L986 676.5L987.4 678.9L990.1 680.6L992.8 681.3L992.2 684.8L993 688.2L995.5 694.3L993.2 698.3L994.2 705.8L995.3 708.7L994.1 710.5L992.2 712.5L985.8 715.8L985.5 717.7L985.7 720.7L985.5 722.8L985.1 724.5L982.9 729.6L977.6 731.8L959.6 732L956.2 733.1L954.4 734L953.1 735.3L952 737.6L950.7 741.8L940.7 735.9L937.5 731L931.2 727L923.9 726.2L918.2 726.7L915.6 727.9L907.4 737.2L900.9 742.4L893.4 744L871 743.3L857.4 739.4L856.4 737.1L859.8 736.3L861.3 735.4L858.7 733.5L844.8 736.3L841.3 734.7L838.7 730.7L838 726.8L839.6 723.5L842.1 720.2L845.2 719.2L848.3 719.6L851.1 718L849.9 714.2L847.6 709.8L847.3 707.6L847.4 705.5L846.5 704L830.8 695.6L807.6 689.7L805.7 686.4L810.3 677.9L811.7 673.9L808.5 671.1L805 668.9L801.1 667.4L797.2 667.6L790.6 672.2L783.2 671.8L770 662.9L769.5 659.5L767 649.8L766.6 647.8L765.6 647.1L765.5 645.2L766.2 643.9L766.9 637.1L766.6 634L764.8 632.6L764.8 631.5L766.3 631L767.5 629.4L767.1 627.2L764.7 621.1L763.9 616L763 613.2L762.8 611.9L762.9 610.1L764.1 606.4L765.9 596.5L767.2 594L768.1 593.2L769.2 593L769 589.7L770.2 584.8L770.8 580.3L766.8 575.5L767 571.6L769.4 569.7L771.8 566.3L771.9 559.8L768.8 559.5L768.8 558.4L770.3 556.6L770 554.6L768.2 551.8L768 549.6L768.1 547.7L767.7 546.3L766.2 545.3L765.2 545.2L762.8 546.3L761 546.4L755.9 545.4L753.1 544.1L751.7 542.3L750.4 540.2L750.3 538.5L751.3 534.4L754.9 533.5L758.5 534.9L765.7 536.1L772.8 533.6L775.3 531.2L775.9 527.5L770.9 519.8L774.7 514.4L780.2 511L776.7 505.7L774.3 499.7L773.9 495.4L771.9 491.2L770.3 486.7L769.7 482.6L776.8 477.3L784.4 475.1L798.8 475.2L812.4 472.5L817.5 473.4L821 472.3L830.5 465.2L834.3 464.7L845.3 465.8L850.8 461.2L851.3 458.8L851.9 456.8L853.6 455L855.4 453.8L859.4 454.7L871.1 460.8L875 459.3L878.3 455.1L881.1 448.4L890.6 434.4L893.8 428.4L895.1 427.8L897 428.2L900.1 430.1L901.9 430.1C901.9 430.1 902.7 429.6 902.7 429.6Z" fill="#ebecf0" fill-rule="nonzero" opacity="1" stroke="#171213" stroke-linecap="round" stroke-linejoin="round" stroke-width="2" vectornator:layerName="path"/>
<path d="M950.7 741.8L949.3 744L941.4 752.6L938.5 754.9L928.6 762.6L905.8 787.4L902.8 792L899.2 794.9L895.2 799.3L884.4 815.2L880.3 819.5L879.7 820.7L878.9 823.9L878.5 825L877.6 825.8L875.8 826.5L875 827.1L874 828.3L867.9 839.4L866.2 841.1L865.1 841.6L863 842L861.8 843L861.1 844.3L859.4 849.2L851.8 859.4L849.4 865.3L851.3 870.8L851.9 873.1L852.6 879.6L853.2 882.2L854.5 884.2L856.7 886.5L857.2 887.7L857.7 890.1L859 904.1L858.6 906.4L857 911L855.5 916.4L854 919.7L853.4 921.6L854.5 922.1L855.8 920.4L856.9 921.7L860.1 923.9L863 927.8L864.9 929.2L869.3 931.7L870.5 933.2L870.5 934.5L869.6 937.5L869.5 939.5L869.9 941L871.9 944.6L870.7 947L868.7 946.1L866.5 944.1L863.6 942.8L861.8 940.3L860.8 939.3L859.7 939.2L857.4 939.9L853.8 939.6L851.7 939.8L849.6 939.5L847.1 937.9L843.4 933.7L841.4 933.1L839.3 935.1L835.8 933.4L828 933.1L824.4 931.9L819.3 926.9L817.2 926L811.7 926.2L807 924.8L806.3 924.2L806.1 923.2L806.3 921.1L805.2 919.9L804.4 919.8L802 920.1L799.9 919.5L796.6 917.4L789.6 916L786.8 914L786.1 909.1L784.8 903.7L782 899.1L778.4 895.7L773 893L769.4 889.6L767.6 888.6L765.5 888.9L763.8 890.5L762.4 892.2L761.4 892.9L759.8 891.7L756.5 886.5L754.8 884.8L753.8 884.5L752.3 884.8L750.5 884L748.7 882.2L747.7 881.5L745.8 881L738.7 881.8L737.2 882.4L733.4 871.8L731.6 860.6L732.2 855.2L731.8 849.8L728.4 839.1L722.4 832.6L711.7 828L708.7 825.3L710.4 821.4L720.3 813.8L719 809.3L715.3 807.3L712.4 807.1L710.3 804.6L709.5 802.4L708.6 800.7L708.7 794.7L709.5 787.8L706.8 764.4L707.5 755.6L711.2 749.2L714.2 741.8L715.3 728.7L715.7 728.5L721.8 723.2L723.7 724L726.2 723.5L728.7 722L730.6 720L729.3 716.8L738.8 712.5L745.2 710.9L747 709.3L750.1 705.6L751.3 703.2L751.8 700.1L752.5 697.7L757.3 692.1L760.1 687.3L761.8 686L764.4 685.6L766.2 684.7L767.7 682.3L768.9 679.5L769.6 677L770.4 670.8L770.3 665L770 662.9L783.2 671.8L790.6 672.2L797.2 667.6L801.1 667.4L805 668.9L808.5 671.1L811.7 673.9L810.3 677.9L805.7 686.4L807.6 689.7L830.8 695.6L846.5 704L847.4 705.5L847.3 707.6L847.6 709.8L849.9 714.2L851.1 718L848.3 719.6L845.2 719.2L842.1 720.2L839.6 723.5L838 726.8L838.7 730.7L841.3 734.7L844.8 736.3L858.7 733.5L861.3 735.4L859.8 736.3L856.4 737.1L857.4 739.4L871 743.3L893.4 744L900.9 742.4L907.4 737.2L915.6 727.9L918.2 726.7L923.9 726.2L931.2 727L937.5 731L940.7 735.9C940.7 735.9 950.7 741.8 950.7 741.8Z" fill="#ebecf0" fill-rule="nonzero" opacity="1" stroke="#171213" stroke-linecap="round" stroke-linejoin="round" stroke-width="2" vectornator:layerName="path"/>
<path d="M402 614.4L404.3 618.4L407.2 620.8L429.5 626.5L436.5 626.3L437.8 625.2L438.7 623.5L439.9 622.9L442.6 626.1L444.9 630.7L452.4 636.7L449 648.9L447.7 650.4L447 652.8L447.6 656.4L448.9 659.3L448.2 664.9L440.4 670L437.8 675.6L436 685.4L433.6 691.9L435.5 697.8L438.2 701.4L441.4 703.9L444.6 707.3L445.7 713L431.3 712.9L428.3 713.6L427 717.1L428.1 719.8L427.9 722.7L425.7 723.7L423.6 724.1L422.7 727.3L424.4 747.4L424.3 755.3L423.2 759.9L413.6 764.4L407.6 768.9L395.1 771.6L389.1 783.2L389 785.8L387.3 785.4L387.8 788.9L388.3 789.1L389.9 788.9L390.6 790L390.8 791.5L390.3 792.2L387.1 793.2L383.1 793.3L381.3 793.8L378.3 796.4L374.7 797.5L371.1 796.7L364.6 790.3L363.5 788.7L362.7 786.9L361.5 783.2L359.5 781L359.1 780.1L360.4 777.9L359 777.6L356.3 776.3L355 775.9L352.1 776.8L350.5 776.1L345.7 770L345.5 768.8L346.2 767.3L347.3 766.7L352.1 766.5L354.8 765.5L359 762.9L361 761.2L361.9 758.8L360.4 756L359.3 754.9L359.1 753.3L359.3 751.9L360.6 748.5L360.6 747.6L358.6 744.8L358 744.3L356.3 743.6L355.7 744L354.9 746.4L351.9 750.5L350.2 751.9L347.9 752.5L339 750.9L334.2 751.3L331.3 754.9L330.3 755.4L329.2 754.9L328.3 752L326.1 750.2L323.9 750.4L322.8 753.3L321.5 752.3L320.8 750.7L320.6 748.7L320.8 746.6L319.3 744.7L321.1 743.9L319 743.1L314.4 743.2L312 742.5L308.5 740.3L307.5 739.2L306.9 737.9L306 734.2L305 733.4L302 734L300.6 734L299.3 733.3L297 731.3L295.9 730.7L285.7 727.8L283.4 728.1L281.9 727.2L282.3 725.3L289.5 707.4L294.7 703.4L300.8 702.4L304.3 696.2L306.6 687.4L313.8 673.7L322.1 661.4L325.7 653.1L330.4 646.9L333.6 644.8L335.2 640L335.8 635.9L336.8 632L342.6 618.7L345.2 615.9L348.5 614.8L351.9 615L355.4 614.2L358.7 612.1L362.1 611.9L365.4 613.6L366.7 617.1L367.3 620.9L372.5 625.2L378.9 625.5L390.7 621.2C390.7 621.2 402 614.4 402 614.4Z" fill="#fde047" fill-rule="nonzero" opacity="1" stroke="#171213" stroke-linecap="round" stroke-linejoin="round" stroke-width="2" vectornator:layerName="path"/>
<path d="M715.3 728.7L714.2 741.8L711.2 749.2L707.5 755.6L706.8 764.4L709.5 787.8L708.7 794.7L708.6 800.7L709.5 802.4L710.3 804.6L712.4 807.1L715.3 807.3L719 809.3L720.3 813.8L710.4 821.4L708.7 825.3L711.7 828L722.4 832.6L728.4 839.1L731.8 849.8L732.2 855.2L731.6 860.6L733.4 871.8L737.2 882.4L735.3 883.2L733.9 882.8L730.2 883.6L728.5 883.6L718.8 880.8L713.2 877.8L711.9 877.5L710.1 878.8L707 883.4L705.2 885L703.1 885.3L701.6 884.3L700.2 882.7L698.4 881.5L696.8 881.3L692.8 882.1L691.2 882.9L689.2 885.1L690.4 886.5L692.7 887.9L694 890.2L693.1 891.6L691.3 892L689.2 892L687.6 892.4L685.6 894.4L682.3 899.1L680.2 901L677.8 901.9L676 901.5L674.4 900.3L672.8 898.6L670.9 897.2L669.3 897L667.6 897.1L665.4 896.8L663.8 895.6L655 885L653.4 884.7L649.7 885.3L646.6 885.1L645.6 885.7L644 887.6L642.9 888.7L640.5 889.5L638.3 889L629.9 884.7L628.3 885.1L628.4 887.7L623.2 887.9L619.1 886.3L617.9 886.4L616.9 887.1L616.6 888.1L615.8 891.7L615.1 893.8L614.6 894.5L606.9 895.2L605.4 896L603.3 898.6L602.3 899.5L600.1 899.3L599.3 899.8L597.4 904.1L596.1 907.6L594.9 909.1L594.3 914.4L593.3 918.2L591.3 919.7L588 918.1L582.9 913.3L580.1 911.8L576.9 912.2L575.1 913.5L571.8 917L569.6 917.8L565 917.5L562.5 916.5L561.2 914.8L561.6 912.7L565.4 906.6L567 905.7L567.1 904.2L566.1 902.9L564.7 901.9L564.4 900.7L565.3 899L564.8 891.6L564.2 889L563.3 886.1L562.4 885.4L559.1 886.8L557.1 887L554.9 886.8L549.2 884.8L549.4 882.9L549.3 880.6L549.9 878.8L545.9 878.7L543.9 878.2L542.2 876.8L541.6 875.7L540 870.9L538.2 863.1L537 860L534.7 858.5L533.9 857.7L532.3 854.7L531.4 854.3L530.9 852.6L528.5 851L527.3 848.2L528.1 845L529.8 841.5L530.2 837.5L523.4 836.3L519.7 834.6L516.5 831.6L515 826.8L512.9 823.1L507.9 821.1L504.9 815.8L504.7 810.6L502.5 807.9L499.9 807.6L497.9 805L499 799.8L501.2 795.3L503.4 792L527 765.4L522.4 759L517.1 753.7L520.2 751.3L526.9 752.2L531.2 746L534 740.4L536.7 736.4L542.2 739.6L544.7 739.6L547.3 739L556.1 732.2L561.6 731.3L567.1 731.8L570.3 731.3L582.9 723.3L582.6 720.5L582 717.1L591.4 717.2L595.3 719.3L598.6 722.8L607 725.4L614.7 730.6L619.2 739.6L620.9 746.8L622.6 750.4L627.1 756.8L629 760.8L636.3 765.2L649.4 765.5L652.4 762.4L652.8 760.7L654 758.8L657.2 757.2L658.6 755.9L659 753.4L659.8 752.3L661 752.1L663.1 750L663.7 747.3L664.4 746.3L668.2 750L669.8 749.2L671.2 747.8L672.5 746.9L674.1 747.9L675.4 747L678.1 746.8L679.1 746.2L680.9 744.2L681.9 743.8L689.3 743.6L690.8 743.2L693.8 740.4L697.9 738.4L698.9 738.2L700.3 738.7L702.2 740.8L704 740.1L705.7 737.7L707.3 736.8L707.4 735.5L708 734.7L709.1 734.1L710.3 733L710.8 730.8L711.8 731.6L712.4 731.6L713.6 730.8L713.5 728.9C713.5 728.9 715.3 728.7 715.3 728.7Z" fill="#fde047" fill-rule="nonzero" opacity="1" stroke="#171213" stroke-linecap="round" stroke-linejoin="round" stroke-width="2" vectornator:layerName="path"/>
</g>
</svg>
